<?xml version="1.0" encoding="UTF-8" standalone="no"?>
<!DOCTYPE svg PUBLIC "-//W3C//DTD SVG 1.1//EN"
 "http://www.w3.org/Graphics/SVG/1.1/DTD/svg11.dtd">
<!-- Generated by graphviz version 2.40.1 (20161225.0304)
 -->
<!-- Title: %3 Pages: 1 -->
<svg width="1129pt" height="404pt"
 viewBox="0.00 0.00 1128.61 404.00" xmlns="http://www.w3.org/2000/svg" xmlns:xlink="http://www.w3.org/1999/xlink">
<g id="graph0" class="graph" transform="scale(1 1) rotate(0) translate(4 400)">
<title>%3</title>
<polygon fill="#ffffff" stroke="transparent" points="-4,4 -4,-400 1124.6142,-400 1124.6142,4 -4,4"/>
<!-- [root] aws_instance.secondserver -->
<g id="node1" class="node">
<title>[root] aws_instance.secondserver</title>
<polygon fill="none" stroke="#000000" points="167.3268,-252 -.109,-252 -.109,-216 167.3268,-216 167.3268,-252"/>
<text text-anchor="middle" x="83.6089" y="-229.8" font-family="Times,serif" font-size="14.00" fill="#000000">aws_instance.secondserver</text>
</g>
<!-- [root] aws_subnet.subnet2 -->
<g id="node4" class="node">
<title>[root] aws_subnet.subnet2</title>
<polygon fill="none" stroke="#000000" points="249.9854,-180 121.2324,-180 121.2324,-144 249.9854,-144 249.9854,-180"/>
<text text-anchor="middle" x="185.6089" y="-157.8" font-family="Times,serif" font-size="14.00" fill="#000000">aws_subnet.subnet2</text>
</g>
<!-- [root] aws_instance.secondserver&#45;&gt;[root] aws_subnet.subnet2 -->
<g id="edge1" class="edge">
<title>[root] aws_instance.secondserver&#45;&gt;[root] aws_subnet.subnet2</title>
<path fill="none" stroke="#000000" d="M109.3478,-215.8314C122.1526,-206.7927 137.7998,-195.7476 151.5808,-186.0198"/>
<polygon fill="#000000" stroke="#000000" points="153.7269,-188.7891 159.8782,-180.1628 149.6901,-183.0703 153.7269,-188.7891"/>
</g>
<!-- [root] data.aws_ami.ubuntu -->
<g id="node8" class="node">
<title>[root] data.aws_ami.ubuntu</title>
<polygon fill="none" stroke="#000000" points="155.0815,-108 20.1362,-108 20.1362,-72 155.0815,-72 155.0815,-108"/>
<text text-anchor="middle" x="87.6089" y="-85.8" font-family="Times,serif" font-size="14.00" fill="#000000">data.aws_ami.ubuntu</text>
</g>
<!-- [root] aws_instance.secondserver&#45;&gt;[root] data.aws_ami.ubuntu -->
<g id="edge2" class="edge">
<title>[root] aws_instance.secondserver&#45;&gt;[root] data.aws_ami.ubuntu</title>
<path fill="none" stroke="#000000" d="M84.1155,-215.7623C84.7977,-191.201 86.0187,-147.2474 86.8213,-118.3541"/>
<polygon fill="#000000" stroke="#000000" points="90.3273,-118.183 87.1064,-108.0896 83.33,-117.9885 90.3273,-118.183"/>
</g>
<!-- [root] aws_security_group.subnetsecurity -->
<g id="node2" class="node">
<title>[root] aws_security_group.subnetsecurity</title>
<polygon fill="none" stroke="#000000" points="398.23,-252 184.9878,-252 184.9878,-216 398.23,-216 398.23,-252"/>
<text text-anchor="middle" x="291.6089" y="-229.8" font-family="Times,serif" font-size="14.00" fill="#000000">aws_security_group.subnetsecurity</text>
</g>
<!-- [root] aws_vpc.our_development_network -->
<g id="node5" class="node">
<title>[root] aws_vpc.our_development_network</title>
<polygon fill="none" stroke="#000000" points="394.4441,-108 174.7737,-108 174.7737,-72 394.4441,-72 394.4441,-108"/>
<text text-anchor="middle" x="284.6089" y="-85.8" font-family="Times,serif" font-size="14.00" fill="#000000">aws_vpc.our_development_network</text>
</g>
<!-- [root] aws_security_group.subnetsecurity&#45;&gt;[root] aws_vpc.our_development_network -->
<g id="edge3" class="edge">
<title>[root] aws_security_group.subnetsecurity&#45;&gt;[root] aws_vpc.our_development_network</title>
<path fill="none" stroke="#000000" d="M290.7223,-215.7623C289.5284,-191.201 287.3917,-147.2474 285.9872,-118.3541"/>
<polygon fill="#000000" stroke="#000000" points="289.4697,-117.9079 285.4882,-108.0896 282.478,-118.2478 289.4697,-117.9079"/>
</g>
<!-- [root] aws_subnet.subnet1 -->
<g id="node3" class="node">
<title>[root] aws_subnet.subnet1</title>
<polygon fill="none" stroke="#000000" points="544.9854,-252 416.2324,-252 416.2324,-216 544.9854,-216 544.9854,-252"/>
<text text-anchor="middle" x="480.6089" y="-229.8" font-family="Times,serif" font-size="14.00" fill="#000000">aws_subnet.subnet1</text>
</g>
<!-- [root] aws_subnet.subnet1&#45;&gt;[root] aws_vpc.our_development_network -->
<g id="edge4" class="edge">
<title>[root] aws_subnet.subnet1&#45;&gt;[root] aws_vpc.our_development_network</title>
<path fill="none" stroke="#000000" d="M455.7854,-215.7623C420.7348,-190.0108 356.6689,-142.942 317.6345,-114.2637"/>
<polygon fill="#000000" stroke="#000000" points="319.362,-111.1898 309.2309,-108.0896 315.2174,-116.831 319.362,-111.1898"/>
</g>
<!-- [root] aws_subnet.subnet2&#45;&gt;[root] aws_vpc.our_development_network -->
<g id="edge5" class="edge">
<title>[root] aws_subnet.subnet2&#45;&gt;[root] aws_vpc.our_development_network</title>
<path fill="none" stroke="#000000" d="M210.5908,-143.8314C222.9017,-134.8779 237.9196,-123.9558 251.2026,-114.2955"/>
<polygon fill="#000000" stroke="#000000" points="253.6062,-116.8752 259.635,-108.1628 249.489,-111.214 253.6062,-116.8752"/>
</g>
<!-- [root] provider.aws -->
<g id="node9" class="node">
<title>[root] provider.aws</title>
<polygon fill="none" stroke="#000000" points="239.6089,-36 161.0005,-18 239.6089,0 318.2172,-18 239.6089,-36"/>
<text text-anchor="middle" x="239.6089" y="-13.8" font-family="Times,serif" font-size="14.00" fill="#000000">provider.aws</text>
</g>
<!-- [root] aws_vpc.our_development_network&#45;&gt;[root] provider.aws -->
<g id="edge6" class="edge">
<title>[root] aws_vpc.our_development_network&#45;&gt;[root] provider.aws</title>
<path fill="none" stroke="#000000" d="M273.2535,-71.8314C267.7288,-62.9918 261.0048,-52.2334 255.0244,-42.6648"/>
<polygon fill="#000000" stroke="#000000" points="257.8499,-40.5818 249.5819,-33.9568 251.9139,-44.2918 257.8499,-40.5818"/>
</g>
<!-- [root] azurerm_resource_group.azy_network -->
<g id="node6" class="node">
<title>[root] azurerm_resource_group.azy_network</title>
<polygon fill="none" stroke="#000000" points="851.3444,-180 619.8734,-180 619.8734,-144 851.3444,-144 851.3444,-180"/>
<text text-anchor="middle" x="735.6089" y="-157.8" font-family="Times,serif" font-size="14.00" fill="#000000">azurerm_resource_group.azy_network</text>
</g>
<!-- [root] provider.azurerm -->
<g id="node10" class="node">
<title>[root] provider.azurerm</title>
<polygon fill="none" stroke="#000000" points="735.6089,-108 635.4726,-90 735.6089,-72 835.7451,-90 735.6089,-108"/>
<text text-anchor="middle" x="735.6089" y="-85.8" font-family="Times,serif" font-size="14.00" fill="#000000">provider.azurerm</text>
</g>
<!-- [root] azurerm_resource_group.azy_network&#45;&gt;[root] provider.azurerm -->
<g id="edge7" class="edge">
<title>[root] azurerm_resource_group.azy_network&#45;&gt;[root] provider.azurerm</title>
<path fill="none" stroke="#000000" d="M735.6089,-143.8314C735.6089,-136.131 735.6089,-126.9743 735.6089,-118.4166"/>
<polygon fill="#000000" stroke="#000000" points="739.109,-118.4132 735.6089,-108.4133 732.109,-118.4133 739.109,-118.4132"/>
</g>
<!-- [root] azurerm_virtual_network.blue_virtual_network -->
<g id="node7" class="node">
<title>[root] azurerm_virtual_network.blue_virtual_network</title>
<polygon fill="none" stroke="#000000" points="876.9098,-252 594.3079,-252 594.3079,-216 876.9098,-216 876.9098,-252"/>
<text text-anchor="middle" x="735.6089" y="-229.8" font-family="Times,serif" font-size="14.00" fill="#000000">azurerm_virtual_network.blue_virtual_network</text>
</g>
<!-- [root] azurerm_virtual_network.blue_virtual_network&#45;&gt;[root] azurerm_resource_group.azy_network -->
<g id="edge8" class="edge">
<title>[root] azurerm_virtual_network.blue_virtual_network&#45;&gt;[root] azurerm_resource_group.azy_network</title>
<path fill="none" stroke="#000000" d="M735.6089,-215.8314C735.6089,-208.131 735.6089,-198.9743 735.6089,-190.4166"/>
<polygon fill="#000000" stroke="#000000" points="739.109,-190.4132 735.6089,-180.4133 732.109,-190.4133 739.109,-190.4132"/>
</g>
<!-- [root] data.aws_ami.ubuntu&#45;&gt;[root] provider.aws -->
<g id="edge9" class="edge">
<title>[root] data.aws_ami.ubuntu&#45;&gt;[root] provider.aws</title>
<path fill="none" stroke="#000000" d="M125.9649,-71.8314C150.0816,-60.4077 180.964,-45.7792 204.4471,-34.6556"/>
<polygon fill="#000000" stroke="#000000" points="206.1559,-37.719 213.695,-30.275 203.1593,-31.3928 206.1559,-37.719"/>
</g>
<!-- [root] var.client_id -->
<g id="node14" class="node">
<title>[root] var.client_id</title>
<ellipse fill="none" stroke="#000000" cx="627.6089" cy="-18" rx="76.3312" ry="18"/>
<text text-anchor="middle" x="627.6089" y="-13.8" font-family="Times,serif" font-size="14.00" fill="#000000">[root] var.client_id</text>
</g>
<!-- [root] provider.azurerm&#45;&gt;[root] var.client_id -->
<g id="edge18" class="edge">
<title>[root] provider.azurerm&#45;&gt;[root] var.client_id</title>
<path fill="none" stroke="#000000" d="M714.2716,-75.7751C699.2998,-65.794 678.9625,-52.2357 661.7517,-40.7619"/>
<polygon fill="#000000" stroke="#000000" points="663.3436,-37.6166 653.0816,-34.9818 659.4606,-43.441 663.3436,-37.6166"/>
</g>
<!-- [root] var.client_secret -->
<g id="node15" class="node">
<title>[root] var.client_secret</title>
<ellipse fill="none" stroke="#000000" cx="812.6089" cy="-18" rx="90.3117" ry="18"/>
<text text-anchor="middle" x="812.6089" y="-13.8" font-family="Times,serif" font-size="14.00" fill="#000000">[root] var.client_secret</text>
</g>
<!-- [root] provider.azurerm&#45;&gt;[root] var.client_secret -->
<g id="edge19" class="edge">
<title>[root] provider.azurerm&#45;&gt;[root] var.client_secret</title>
<path fill="none" stroke="#000000" d="M751.9386,-74.7307C761.8383,-65.4738 774.7047,-53.4429 786.04,-42.8437"/>
<polygon fill="#000000" stroke="#000000" points="788.6738,-45.1727 793.5875,-35.7862 783.8928,-40.0597 788.6738,-45.1727"/>
</g>
<!-- [root] var.subscription_id -->
<g id="node16" class="node">
<title>[root] var.subscription_id</title>
<ellipse fill="none" stroke="#000000" cx="1020.6089" cy="-18" rx="100.0106" ry="18"/>
<text text-anchor="middle" x="1020.6089" y="-13.8" font-family="Times,serif" font-size="14.00" fill="#000000">[root] var.subscription_id</text>
</g>
<!-- [root] provider.azurerm&#45;&gt;[root] var.subscription_id -->
<g id="edge20" class="edge">
<title>[root] provider.azurerm&#45;&gt;[root] var.subscription_id</title>
<path fill="none" stroke="#000000" d="M777.3556,-79.4535C823.3503,-67.8337 898.0166,-48.9707 952.5094,-35.2041"/>
<polygon fill="#000000" stroke="#000000" points="953.6001,-38.5386 962.4382,-32.6958 951.8855,-31.7518 953.6001,-38.5386"/>
</g>
<!-- [root] var.tenant_id -->
<g id="node17" class="node">
<title>[root] var.tenant_id</title>
<ellipse fill="none" stroke="#000000" cx="454.6089" cy="-18" rx="78.2607" ry="18"/>
<text text-anchor="middle" x="454.6089" y="-13.8" font-family="Times,serif" font-size="14.00" fill="#000000">[root] var.tenant_id</text>
</g>
<!-- [root] provider.azurerm&#45;&gt;[root] var.tenant_id -->
<g id="edge21" class="edge">
<title>[root] provider.azurerm&#45;&gt;[root] var.tenant_id</title>
<path fill="none" stroke="#000000" d="M694.1464,-79.3762C647.4372,-67.408 571.0152,-47.8265 517.0709,-34.0045"/>
<polygon fill="#000000" stroke="#000000" points="517.828,-30.5855 507.2722,-31.4938 516.0905,-37.3664 517.828,-30.5855"/>
</g>
<!-- [root] meta.count&#45;boundary (count boundary fixup) -->
<g id="node11" class="node">
<title>[root] meta.count&#45;boundary (count boundary fixup)</title>
<ellipse fill="none" stroke="#000000" cx="438.6089" cy="-306" rx="191.6931" ry="18"/>
<text text-anchor="middle" x="438.6089" y="-301.8" font-family="Times,serif" font-size="14.00" fill="#000000">[root] meta.count&#45;boundary (count boundary fixup)</text>
</g>
<!-- [root] meta.count&#45;boundary (count boundary fixup)&#45;&gt;[root] aws_instance.secondserver -->
<g id="edge10" class="edge">
<title>[root] meta.count&#45;boundary (count boundary fixup)&#45;&gt;[root] aws_instance.secondserver</title>
<path fill="none" stroke="#000000" d="M358.0539,-289.6621C304.3081,-278.7615 233.4564,-264.3916 177.2058,-252.983"/>
<polygon fill="#000000" stroke="#000000" points="177.7347,-249.5191 167.2385,-250.9615 176.3433,-256.3794 177.7347,-249.5191"/>
</g>
<!-- [root] meta.count&#45;boundary (count boundary fixup)&#45;&gt;[root] aws_security_group.subnetsecurity -->
<g id="edge11" class="edge">
<title>[root] meta.count&#45;boundary (count boundary fixup)&#45;&gt;[root] aws_security_group.subnetsecurity</title>
<path fill="none" stroke="#000000" d="M402.2718,-288.2022C382.7196,-278.6256 358.406,-266.7169 337.5527,-256.5031"/>
<polygon fill="#000000" stroke="#000000" points="339.0692,-253.3486 328.549,-252.0931 335.9901,-259.6351 339.0692,-253.3486"/>
</g>
<!-- [root] meta.count&#45;boundary (count boundary fixup)&#45;&gt;[root] aws_subnet.subnet1 -->
<g id="edge12" class="edge">
<title>[root] meta.count&#45;boundary (count boundary fixup)&#45;&gt;[root] aws_subnet.subnet1</title>
<path fill="none" stroke="#000000" d="M449.2073,-287.8314C453.8966,-279.7925 459.5117,-270.1666 464.6887,-261.2918"/>
<polygon fill="#000000" stroke="#000000" points="467.8523,-262.8146 469.8678,-252.4133 461.8058,-259.2875 467.8523,-262.8146"/>
</g>
<!-- [root] meta.count&#45;boundary (count boundary fixup)&#45;&gt;[root] azurerm_virtual_network.blue_virtual_network -->
<g id="edge13" class="edge">
<title>[root] meta.count&#45;boundary (count boundary fixup)&#45;&gt;[root] azurerm_virtual_network.blue_virtual_network</title>
<path fill="none" stroke="#000000" d="M507.8674,-289.2101C550.7444,-278.8156 606.086,-265.3995 651.4781,-254.3953"/>
<polygon fill="#000000" stroke="#000000" points="652.4066,-257.7717 661.3005,-252.0142 650.7573,-250.9688 652.4066,-257.7717"/>
</g>
<!-- [root] provider.aws (close) -->
<g id="node12" class="node">
<title>[root] provider.aws (close)</title>
<ellipse fill="none" stroke="#000000" cx="124.6089" cy="-306" rx="104.3276" ry="18"/>
<text text-anchor="middle" x="124.6089" y="-301.8" font-family="Times,serif" font-size="14.00" fill="#000000">[root] provider.aws (close)</text>
</g>
<!-- [root] provider.aws (close)&#45;&gt;[root] aws_instance.secondserver -->
<g id="edge14" class="edge">
<title>[root] provider.aws (close)&#45;&gt;[root] aws_instance.secondserver</title>
<path fill="none" stroke="#000000" d="M114.2629,-287.8314C109.6852,-279.7925 104.2037,-270.1666 99.15,-261.2918"/>
<polygon fill="#000000" stroke="#000000" points="102.0841,-259.3712 94.0942,-252.4133 96.0012,-262.8351 102.0841,-259.3712"/>
</g>
<!-- [root] provider.aws (close)&#45;&gt;[root] aws_security_group.subnetsecurity -->
<g id="edge15" class="edge">
<title>[root] provider.aws (close)&#45;&gt;[root] aws_security_group.subnetsecurity</title>
<path fill="none" stroke="#000000" d="M163.763,-289.1192C186.6731,-279.2418 215.8577,-266.6592 240.5567,-256.0105"/>
<polygon fill="#000000" stroke="#000000" points="241.9837,-259.2068 249.7809,-252.0336 239.2123,-252.7788 241.9837,-259.2068"/>
</g>
<!-- [root] provider.aws (close)&#45;&gt;[root] aws_subnet.subnet1 -->
<g id="edge16" class="edge">
<title>[root] provider.aws (close)&#45;&gt;[root] aws_subnet.subnet1</title>
<path fill="none" stroke="#000000" d="M197.8266,-293.1338C252.7443,-283.2279 329.9843,-268.7569 406.371,-252.2203"/>
<polygon fill="#000000" stroke="#000000" points="407.1394,-255.635 416.1657,-250.0873 405.6499,-248.7953 407.1394,-255.635"/>
</g>
<!-- [root] provider.azurerm (close) -->
<g id="node13" class="node">
<title>[root] provider.azurerm (close)</title>
<ellipse fill="none" stroke="#000000" cx="767.6089" cy="-306" rx="119.2527" ry="18"/>
<text text-anchor="middle" x="767.6089" y="-301.8" font-family="Times,serif" font-size="14.00" fill="#000000">[root] provider.azurerm (close)</text>
</g>
<!-- [root] provider.azurerm (close)&#45;&gt;[root] azurerm_virtual_network.blue_virtual_network -->
<g id="edge17" class="edge">
<title>[root] provider.azurerm (close)&#45;&gt;[root] azurerm_virtual_network.blue_virtual_network</title>
<path fill="none" stroke="#000000" d="M759.5339,-287.8314C755.9987,-279.8771 751.7729,-270.369 747.8632,-261.5723"/>
<polygon fill="#000000" stroke="#000000" points="751.0523,-260.1299 743.7926,-252.4133 744.6557,-262.9729 751.0523,-260.1299"/>
</g>
<!-- [root] root -->
<g id="node18" class="node">
<title>[root] root</title>
<ellipse fill="none" stroke="#000000" cx="438.6089" cy="-378" rx="46.8976" ry="18"/>
<text text-anchor="middle" x="438.6089" y="-373.8" font-family="Times,serif" font-size="14.00" fill="#000000">[root] root</text>
</g>
<!-- [root] root&#45;&gt;[root] meta.count&#45;boundary (count boundary fixup) -->
<g id="edge22" class="edge">
<title>[root] root&#45;&gt;[root] meta.count&#45;boundary (count boundary fixup)</title>
<path fill="none" stroke="#000000" d="M438.6089,-359.8314C438.6089,-352.131 438.6089,-342.9743 438.6089,-334.4166"/>
<polygon fill="#000000" stroke="#000000" points="442.109,-334.4132 438.6089,-324.4133 435.109,-334.4133 442.109,-334.4132"/>
</g>
<!-- [root] root&#45;&gt;[root] provider.aws (close) -->
<g id="edge23" class="edge">
<title>[root] root&#45;&gt;[root] provider.aws (close)</title>
<path fill="none" stroke="#000000" d="M398.2017,-368.7347C347.4962,-357.1079 259.62,-336.958 197.1477,-322.6331"/>
<polygon fill="#000000" stroke="#000000" points="197.8783,-319.2099 187.349,-320.3863 196.3138,-326.0328 197.8783,-319.2099"/>
</g>
<!-- [root] root&#45;&gt;[root] provider.azurerm (close) -->
<g id="edge24" class="edge">
<title>[root] root&#45;&gt;[root] provider.azurerm (close)</title>
<path fill="none" stroke="#000000" d="M479.2807,-369.0992C531.6096,-357.6473 623.6191,-337.5114 689.6369,-323.0638"/>
<polygon fill="#000000" stroke="#000000" points="690.569,-326.4427 699.5896,-320.8857 689.0725,-319.6045 690.569,-326.4427"/>
</g>
</g>
</svg>
